# xmcd
#
# Track frame offsets: 
#        150
#        22972
#        48670
#        67715
#        88181
#        114088
#        140861
#        161230
#        182001
#        211052
#        233209
#        248034
#
# Disc length: 3609 seconds
#
# Revision: 0
# Processed by: cddbd v1.5.1PL0 Copyright (c) Steve Scherf et al.
# Submitted via: ExactAudioCopy v0.95b3
#
DISCID=9e0e170c
DTITLE=Deitra Farr - Let It Go!
DYEAR=2005
DGENRE=Blues
TTITLE0=Let It Go!
TTITLE1=Signs, Signals And Warnings
TTITLE2=It Really Doesn't Matter
TTITLE3=I'm Through With It
TTITLE4=When They Really Love You
TTITLE5=In A Dark Place
TTITLE6=Don't Hold Me So Tight
TTITLE7=A Week From Yesterday
TTITLE8=My Love For You
TTITLE9=Call Your Wife
TTITLE10=Thank You For Leaving Me
TTITLE11=My Turn, My Time
EXTD=
EXTT0=
EXTT1=
EXTT2=
EXTT3=
EXTT4=
EXTT5=
EXTT6=
EXTT7=
EXTT8=
EXTT9=
EXTT10=
EXTT11=
PLAYORDER=
